<svg width="46" height="46" viewBox="0 0 46 46" fill="none" xmlns="http://www.w3.org/2000/svg">
<path d="M23.3866 0.604736C24.1346 0.604736 24.852 0.903005 25.3809 1.43392C25.9098 1.96484 26.207 2.68493 26.207 3.43576V20.4219H43.1292C43.8772 20.4219 44.5946 20.7202 45.1235 21.2511C45.6525 21.782 45.9496 22.5021 45.9496 23.2529C45.9496 24.0038 45.6525 24.7238 45.1235 25.2548C44.5946 25.7857 43.8772 26.0839 43.1292 26.0839H26.207V43.0701C26.207 43.8209 25.9098 44.541 25.3809 45.0719C24.852 45.6028 24.1346 45.9011 23.3866 45.9011C22.6386 45.9011 21.9212 45.6028 21.3923 45.0719C20.8634 44.541 20.5662 43.8209 20.5662 43.0701V26.0839H3.64401C2.896 26.0839 2.17863 25.7857 1.64971 25.2548C1.12079 24.7238 0.823639 24.0038 0.823639 23.2529C0.823639 22.5021 1.12079 21.782 1.64971 21.2511C2.17863 20.7202 2.896 20.4219 3.64401 20.4219H20.5662V3.43576C20.5662 2.68493 20.8634 1.96484 21.3923 1.43392C21.9212 0.903005 22.6386 0.604736 23.3866 0.604736Z" fill="#2B74E3"/>
</svg>
