<svg width="64" height="64" viewBox="0 0 64 64" fill="none" xmlns="http://www.w3.org/2000/svg">
<g clip-path="url(#clip0_32_15)">
<path d="M56.2133 18.6666C55.7526 17.8683 55.0928 17.203 54.2982 16.7356C53.5037 16.2683 52.6017 16.0148 51.68 16H17.5467L16 9.97331C15.8437 9.39155 15.4951 8.87983 15.0109 8.5215C14.5267 8.16318 13.9354 7.97936 13.3333 7.99998H8.00001C7.29277 7.99998 6.61449 8.28093 6.11439 8.78103C5.61429 9.28112 5.33334 9.9594 5.33334 10.6666C5.33334 11.3739 5.61429 12.0522 6.11439 12.5523C6.61449 13.0524 7.29277 13.3333 8.00001 13.3333H11.3067L18.6667 40.6933C18.8229 41.2751 19.1716 41.7868 19.6558 42.1451C20.14 42.5034 20.7313 42.6873 21.3333 42.6666H45.3333C45.8258 42.6651 46.3082 42.5273 46.7271 42.2684C47.146 42.0096 47.4851 41.6397 47.7067 41.2L56.4533 23.7066C56.8325 22.912 57.0089 22.0359 56.9671 21.1565C56.9252 20.277 56.6662 19.4216 56.2133 18.6666ZM43.68 37.3333H23.36L19.0133 21.3333H51.68L43.68 37.3333Z" fill="url(#paint0_linear_32_15)"/>
<path d="M20 56C22.2091 56 24 54.2091 24 52C24 49.7909 22.2091 48 20 48C17.7909 48 16 49.7909 16 52C16 54.2091 17.7909 56 20 56Z" fill="url(#paint1_linear_32_15)"/>
<path d="M46.6667 56C48.8758 56 50.6667 54.2091 50.6667 52C50.6667 49.7909 48.8758 48 46.6667 48C44.4575 48 42.6667 49.7909 42.6667 52C42.6667 54.2091 44.4575 56 46.6667 56Z" fill="url(#paint2_linear_32_15)"/>
</g>
<defs>
<linearGradient id="paint0_linear_32_15" x1="31.1532" y1="7.99841" x2="31.1532" y2="42.6682" gradientUnits="userSpaceOnUse">
<stop stop-color="#2B74E3"/>
<stop offset="1" stop-color="#FF866B"/>
</linearGradient>
<linearGradient id="paint1_linear_32_15" x1="20" y1="48" x2="20" y2="56" gradientUnits="userSpaceOnUse">
<stop stop-color="#2B74E3"/>
<stop offset="1" stop-color="#FF866B"/>
</linearGradient>
<linearGradient id="paint2_linear_32_15" x1="46.6667" y1="48" x2="46.6667" y2="56" gradientUnits="userSpaceOnUse">
<stop stop-color="#2B74E3"/>
<stop offset="1" stop-color="#FF866B"/>
</linearGradient>
<clipPath id="clip0_32_15">
<rect width="64" height="64" fill="white"/>
</clipPath>
</defs>
</svg>
