<svg width="111" height="111" viewBox="0 0 111 111" fill="none" xmlns="http://www.w3.org/2000/svg">
<circle cx="55.5" cy="55.5" r="55.5" fill="#2B75E3"/>
<path d="M55.91 80.84C51.99 80.84 48.2333 80.3267 44.64 79.3C41.0467 78.2267 38.1533 76.85 35.96 75.17L39.81 66.63C41.91 68.1233 44.3833 69.36 47.23 70.34C50.1233 71.2733 53.04 71.74 55.98 71.74C58.22 71.74 60.0167 71.53 61.37 71.11C62.77 70.6433 63.7967 70.0133 64.45 69.22C65.1033 68.4267 65.43 67.5167 65.43 66.49C65.43 65.1833 64.9167 64.1567 63.89 63.41C62.8633 62.6167 61.51 61.9867 59.83 61.52C58.15 61.0067 56.2833 60.54 54.23 60.12C52.2233 59.6533 50.1933 59.0933 48.14 58.44C46.1333 57.7867 44.29 56.9467 42.61 55.92C40.93 54.8933 39.5533 53.54 38.48 51.86C37.4533 50.18 36.94 48.0333 36.94 45.42C36.94 42.62 37.6867 40.0767 39.18 37.79C40.72 35.4567 43.0067 33.6133 46.04 32.26C49.12 30.86 52.97 30.16 57.59 30.16C60.67 30.16 63.7033 30.5333 66.69 31.28C69.6767 31.98 72.3133 33.0533 74.6 34.5L71.1 43.11C68.8133 41.8033 66.5267 40.8467 64.24 40.24C61.9533 39.5867 59.7133 39.26 57.52 39.26C55.3267 39.26 53.53 39.5167 52.13 40.03C50.73 40.5433 49.7267 41.22 49.12 42.06C48.5133 42.8533 48.21 43.7867 48.21 44.86C48.21 46.12 48.7233 47.1467 49.75 47.94C50.7767 48.6867 52.13 49.2933 53.81 49.76C55.49 50.2267 57.3333 50.6933 59.34 51.16C61.3933 51.6267 63.4233 52.1633 65.43 52.77C67.4833 53.3767 69.35 54.1933 71.03 55.22C72.71 56.2467 74.0633 57.6 75.09 59.28C76.1633 60.96 76.7 63.0833 76.7 65.65C76.7 68.4033 75.93 70.9233 74.39 73.21C72.85 75.4967 70.54 77.34 67.46 78.74C64.4267 80.14 60.5767 80.84 55.91 80.84Z" fill="white"/>
<mask id="mask0_32_8" style="mask-type:alpha" maskUnits="userSpaceOnUse" x="35" y="30" width="42" height="51">
<path d="M55.91 80.84C51.99 80.84 48.2333 80.3267 44.64 79.3C41.0467 78.2267 38.1533 76.85 35.96 75.17L39.81 66.63C41.91 68.1233 44.3833 69.36 47.23 70.34C50.1233 71.2733 53.04 71.74 55.98 71.74C58.22 71.74 60.0167 71.53 61.37 71.11C62.77 70.6433 63.7967 70.0133 64.45 69.22C65.1033 68.4267 65.43 67.5167 65.43 66.49C65.43 65.1833 64.9167 64.1567 63.89 63.41C62.8633 62.6167 61.51 61.9867 59.83 61.52C58.15 61.0067 56.2833 60.54 54.23 60.12C52.2233 59.6533 50.1933 59.0933 48.14 58.44C46.1333 57.7867 44.29 56.9467 42.61 55.92C40.93 54.8933 39.5533 53.54 38.48 51.86C37.4533 50.18 36.94 48.0333 36.94 45.42C36.94 42.62 37.6867 40.0767 39.18 37.79C40.72 35.4567 43.0067 33.6133 46.04 32.26C49.12 30.86 52.97 30.16 57.59 30.16C60.67 30.16 63.7033 30.5333 66.69 31.28C69.6767 31.98 72.3133 33.0533 74.6 34.5L71.1 43.11C68.8133 41.8033 66.5267 40.8467 64.24 40.24C61.9533 39.5867 59.7133 39.26 57.52 39.26C55.3267 39.26 53.53 39.5167 52.13 40.03C50.73 40.5433 49.7267 41.22 49.12 42.06C48.5133 42.8533 48.21 43.7867 48.21 44.86C48.21 46.12 48.7233 47.1467 49.75 47.94C50.7767 48.6867 52.13 49.2933 53.81 49.76C55.49 50.2267 57.3333 50.6933 59.34 51.16C61.3933 51.6267 63.4233 52.1633 65.43 52.77C67.4833 53.3767 69.35 54.1933 71.03 55.22C72.71 56.2467 74.0633 57.6 75.09 59.28C76.1633 60.96 76.7 63.0833 76.7 65.65C76.7 68.4033 75.93 70.9233 74.39 73.21C72.85 75.4967 70.54 77.34 67.46 78.74C64.4267 80.14 60.5767 80.84 55.91 80.84Z" fill="white"/>
</mask>
<g mask="url(#mask0_32_8)">
<path d="M113.115 123.403C90.8746 139.602 33.8634 111.817 8.18631 76.5637C-17.4908 41.3108 -1.08957 22.343 21.1505 6.14406C60.6372 -27.862 32.6048 21.8701 58.2819 57.123C83.959 92.376 135.355 107.204 113.115 123.403Z" fill="url(#paint0_linear_32_8)"/>
</g>
<defs>
<linearGradient id="paint0_linear_32_8" x1="53.0796" y1="87.5581" x2="22.3404" y2="46.2191" gradientUnits="userSpaceOnUse">
<stop stop-color="#FFF069" stop-opacity="0.9"/>
<stop offset="1" stop-color="#DD6038" stop-opacity="0.59"/>
</linearGradient>
</defs>
</svg>
