<svg width="50" height="50" viewBox="0 0 50 44" fill="none" xmlns="http://www.w3.org/2000/svg">
<path d="M7.03125 5.46875H42.9688C43.833 5.46875 44.5312 6.16699 44.5312 7.03125V42.9688C44.5312 43.833 43.833 44.5312 42.9688 44.5312H7.03125C6.16699 44.5312 5.46875 43.833 5.46875 42.9688V7.03125C5.46875 6.16699 6.16699 5.46875 7.03125 5.46875ZM15.625 26.1719C15.625 26.3867 15.8008 26.5625 16.0156 26.5625H23.4375V33.9844C23.4375 34.1992 23.6133 34.375 23.8281 34.375H26.1719C26.3867 34.375 26.5625 34.1992 26.5625 33.9844V26.5625H33.9844C34.1992 26.5625 34.375 26.3867 34.375 26.1719V23.8281C34.375 23.6133 34.1992 23.4375 33.9844 23.4375H26.5625V16.0156C26.5625 15.8008 26.3867 15.625 26.1719 15.625H23.8281C23.6133 15.625 23.4375 15.8008 23.4375 16.0156V23.4375H16.0156C15.8008 23.4375 15.625 23.6133 15.625 23.8281V26.1719Z" fill="#2B74E3"/>
</svg>
