<svg width="56" height="56" viewBox="0 0 56 56" fill="none" xmlns="http://www.w3.org/2000/svg">
<path d="M16.261 16.261C16.4235 16.098 16.6166 15.9687 16.8292 15.8805C17.0418 15.7922 17.2698 15.7468 17.5 15.7468C17.7301 15.7468 17.9581 15.7922 18.1707 15.8805C18.3833 15.9687 18.5764 16.098 18.739 16.261L28 25.5255L37.261 16.261C37.4237 16.0982 37.6168 15.9692 37.8294 15.8811C38.042 15.7931 38.2698 15.7477 38.5 15.7477C38.7301 15.7477 38.9579 15.7931 39.1705 15.8811C39.3831 15.9692 39.5762 16.0982 39.739 16.261C39.9017 16.4237 40.0307 16.6168 40.1188 16.8294C40.2068 17.042 40.2522 17.2699 40.2522 17.5C40.2522 17.7301 40.2068 17.9579 40.1188 18.1705C40.0307 18.3831 39.9017 18.5762 39.739 18.739L30.4745 28L39.739 37.261C39.9017 37.4237 40.0307 37.6168 40.1188 37.8294C40.2068 38.042 40.2522 38.2698 40.2522 38.5C40.2522 38.7301 40.2068 38.9579 40.1188 39.1705C40.0307 39.3831 39.9017 39.5762 39.739 39.739C39.5762 39.9017 39.3831 40.0307 39.1705 40.1188C38.9579 40.2068 38.7301 40.2522 38.5 40.2522C38.2698 40.2522 38.042 40.2068 37.8294 40.1188C37.6168 40.0307 37.4237 39.9017 37.261 39.739L28 30.4745L18.739 39.739C18.5762 39.9017 18.3831 40.0307 18.1705 40.1188C17.9579 40.2068 17.7301 40.2522 17.5 40.2522C17.2699 40.2522 17.042 40.2068 16.8294 40.1188C16.6168 40.0307 16.4237 39.9017 16.261 39.739C16.0982 39.5762 15.9692 39.3831 15.8811 39.1705C15.7931 38.9579 15.7477 38.7301 15.7477 38.5C15.7477 38.2698 15.7931 38.042 15.8811 37.8294C15.9692 37.6168 16.0982 37.4237 16.261 37.261L25.5255 28L16.261 18.739C16.098 18.5764 15.9687 18.3833 15.8805 18.1707C15.7922 17.9581 15.7468 17.7301 15.7468 17.5C15.7468 17.2698 15.7922 17.0418 15.8805 16.8292C15.9687 16.6166 16.098 16.4235 16.261 16.261Z" fill="#E3847C"/>
</svg>
